<?xml version="1.0" encoding="UTF-8"?>
<svg version="1.1" xmlns="http://www.w3.org/2000/svg" width="500" height="500">
<path d="M0 0 C165 0 330 0 500 0 C500 165 500 330 500 500 C335 500 170 500 0 500 C0 335 0 170 0 0 Z " fill="#F9F9F9" transform="translate(0,0)"/>
<path d="M0 0 C7.26 0 14.52 0 22 0 C22 17.49 22 34.98 22 53 C29.68691111 52.92589082 37.37268262 52.84295405 45.05908203 52.73754883 C47.67197702 52.70436561 50.28494255 52.67631329 52.89794922 52.65356445 C56.66143761 52.61989792 60.42428339 52.56757351 64.1875 52.51171875 C65.34926758 52.50532883 66.51103516 52.4989389 67.70800781 52.49235535 C74.18742402 52.37581716 79.09207983 51.69415292 85 49 C85.78375 48.690625 86.5675 48.38125 87.375 48.0625 C89.48503388 46.68286247 89.9312164 45.26499909 91 43 C91.61875 41.845 92.2375 40.69 92.875 39.5 C97.12773631 30.9470991 99.4072715 21.8613051 101.19140625 12.51953125 C101.45824219 11.68808594 101.72507812 10.85664063 102 10 C102.99 9.67 103.98 9.34 105 9 C106.70103668 12.40207336 106.16320272 16.2804458 106.16796875 20.0234375 C106.17296135 21.37001938 106.17296135 21.37001938 106.17805481 22.74380493 C106.18312296 24.6452788 106.18546317 26.54676157 106.18530273 28.44824219 C106.18748594 31.35626933 106.20563371 34.26391519 106.22460938 37.171875 C106.22754397 39.01822787 106.22952832 40.86458254 106.23046875 42.7109375 C106.23765427 43.5808432 106.24483978 44.4507489 106.25224304 45.34701538 C106.24916641 46.1611087 106.24608978 46.97520203 106.24291992 47.81396484 C106.24434494 48.52741058 106.24576996 49.24085632 106.24723816 49.97592163 C105.95537732 52.36531493 105.25940864 53.95638944 104 56 C101.52457564 57.23771218 99.89717764 57.12309772 97.12789917 57.12025452 C96.09862305 57.12162918 95.06934692 57.12300385 94.00888062 57.12442017 C92.87528107 57.12082489 91.74168152 57.11722961 90.57373047 57.11352539 C89.38350281 57.11367142 88.19327515 57.11381744 86.96697998 57.1139679 C83.6985906 57.11338958 80.43024373 57.10836573 77.16186285 57.10139394 C73.74789457 57.09515317 70.3339255 57.09455603 66.91995239 57.09336853 C60.45305527 57.09025735 53.98617501 57.08204683 47.51928532 57.07201904 C40.15783358 57.06085129 32.79638104 57.05534578 25.43492293 57.05032361 C10.28993922 57.03986405 -4.85502871 57.02226873 -20 57 C-20 55.68 -20 54.36 -20 53 C-13.4 53 -6.8 53 0 53 C0 35.51 0 18.02 0 0 Z " fill="#050505" transform="translate(132,270)"/>
<path d="M0 0 C2.40426126 1.4815215 2.40426126 1.4815215 6.234375 1.171875 C8.6876429 -0.79631664 8.6876429 -0.79631664 10.984375 -3.328125 C11.78359375 -4.1634375 12.5828125 -4.99875 13.40625 -5.859375 C14.00953125 -6.5090625 14.6128125 -7.15875 15.234375 -7.828125 C16.224375 -7.498125 17.214375 -7.168125 18.234375 -6.828125 C18.234375 7.031875 18.234375 20.891875 18.234375 35.171875 C16.749375 34.676875 16.749375 34.676875 15.234375 34.171875 C14.09375 31.8359375 14.09375 31.8359375 12.984375 28.796875 C6.82520921 13.33461103 -1.60563693 4.78983353 -16.765625 -1.828125 C-25.54825783 -5.40623467 -36.57046061 -5.01814659 -45.4609375 -1.85546875 C-56.34760552 2.99740191 -62.06835231 10.59781002 -66.578125 21.484375 C-70.41551837 32.21649483 -70.89238846 42.81980003 -71.765625 54.171875 C-80.675625 54.171875 -89.585625 54.171875 -98.765625 54.171875 C-96.39507195 42.31910976 -96.39507195 42.31910976 -93.765625 36.421875 C-93.4665625 35.74648682 -93.1675 35.07109863 -92.859375 34.37524414 C-83.7361356 14.69176316 -68.25570486 0.9537427 -48.0859375 -6.8671875 C-32.06857884 -11.9528177 -14.07115211 -8.82724449 0 0 Z " fill="#070707" transform="translate(355.765625,175.828125)"/>
<path d="M0 0 C7.92 0 15.84 0 24 0 C24.391875 2.495625 24.78375 4.99125 25.1875 7.5625 C27.53758026 21.24989703 30.88025899 36.01288792 42.4375 44.9375 C52.31106296 51.03015811 63.21651937 51.55845709 74.453125 49.30859375 C90.89593927 44.27034681 100.10096524 32.55029363 107.95703125 17.9296875 C110.03050384 13.98240265 112.02029286 9.99500451 114 6 C114.99 6 115.98 6 117 6 C117 21.18 117 36.36 117 52 C111.86509399 50.9730188 111.37532181 50.86512718 108.375 47.125 C106.33777491 44.62686425 104.32279939 42.23833396 102 40 C99.2078095 41.27299868 97.23809049 42.6032635 95.0625 44.75 C83.91427301 54.57105711 70.31417431 55.76495827 56.18554688 55.17480469 C42.09292773 54.04764703 29.66046642 44.6285837 20 35 C18.85917969 33.89398438 18.85917969 33.89398438 17.6953125 32.765625 C13.00208137 27.92623789 9.40769488 22.75449373 6.0625 16.9375 C5.68472412 16.289021 5.30694824 15.64054199 4.91772461 14.97241211 C2.07553915 9.80615805 1.35824901 6.11212054 0 0 Z " fill="#080808" transform="translate(260,270)"/>
<path d="M0 0 C21.12 0 42.24 0 64 0 C64 1.32 64 2.64 64 4 C56.74 4 49.48 4 42 4 C42 22.15 42 40.3 42 59 C34.74 59 27.48 59 20 59 C20 40.85 20 22.7 20 4 C13.4 4 6.8 4 0 4 C0 2.68 0 1.36 0 0 Z " fill="#040404" transform="translate(112,171)"/>
<path d="M0 0 C1.9375 1.125 1.9375 1.125 3 3 C3.38976435 6.11811483 3.50422245 8.11019567 1.9375 10.875 C-1.1069286 12.64273274 -3.5631012 12.36823916 -7 12 C-8.9375 10.875 -8.9375 10.875 -10 9 C-10.38976435 5.88188517 -10.50422245 3.88980433 -8.9375 1.125 C-5.8930714 -0.64273274 -3.4368988 -0.36823916 0 0 Z " fill="#151515" transform="translate(242,243)"/>
<path d="M0 0 C4.59037956 1.14759489 5.33669182 2.29039218 8 6 C8.33 4.35 8.66 2.7 9 1 C9.99 1 10.98 1 12 1 C12 4.96 12 8.92 12 13 C7.40962044 11.85240511 6.66330818 10.70960782 4 7 C3.67 8.98 3.34 10.96 3 13 C2.01 13 1.02 13 0 13 C0 8.71 0 4.42 0 0 Z " fill="#1F1F1F" transform="translate(253,242)"/>
<path d="M0 0 C4.29425875 1.07356469 4.74740471 1.5084773 7 5 C7.33 3.35 7.66 1.7 8 0 C8.99 0 9.98 0 11 0 C11 3.96 11 7.92 11 12 C6.70574125 10.92643531 6.25259529 10.4915227 4 7 C3.67 8.65 3.34 10.3 3 12 C2.01 12 1.02 12 0 12 C0 8.04 0 4.08 0 0 Z " fill="#151515" transform="translate(274,243)"/>
<path d="M0 0 C3.3 0 6.6 0 10 0 C10 0.99 10 1.98 10 3 C7.69 3 5.38 3 3 3 C3 3.99 3 4.98 3 6 C4.98 6 6.96 6 9 6 C9 6.66 9 7.32 9 8 C7.02 8 5.04 8 3 8 C3 8.99 3 9.98 3 11 C5.31 11 7.62 11 10 11 C10 11.66 10 12.32 10 13 C6.7 13 3.4 13 0 13 C0 8.71 0 4.42 0 0 Z " fill="#252525" transform="translate(294,242)"/>
<path d="M0 0 C0.33 0.99 0.66 1.98 1 3 C-0.98 3 -2.96 3 -5 3 C-4.15433261 5.27173092 -4.15433261 5.27173092 -1.5 5.875 C1 7 1 7 1.9375 9 C1.958125 9.66 1.97875 10.32 2 11 C0 13 0 13 -3.625 13.125 C-4.73875 13.08375 -5.8525 13.0425 -7 13 C-7.33 12.01 -7.66 11.02 -8 10 C-5.69 10.33 -3.38 10.66 -1 11 C-1.33 10.34 -1.66 9.68 -2 9 C-2.825 8.731875 -3.65 8.46375 -4.5 8.1875 C-5.325 7.795625 -6.15 7.40375 -7 7 C-7.8125 4.375 -7.8125 4.375 -8 2 C-4.77208445 -0.1519437 -3.71599191 -0.20086443 0 0 Z " fill="#151515" transform="translate(203,242)"/>
<path d="M0 0 C2.97 0 5.94 0 9 0 C9 0.66 9 1.32 9 2 C6.69 2 4.38 2 2 2 C2 2.99 2 3.98 2 5 C3.98 5 5.96 5 8 5 C8 5.66 8 6.32 8 7 C6.02 7 4.04 7 2 7 C2 7.99 2 8.98 2 10 C4.31 10 6.62 10 9 10 C9 10.66 9 11.32 9 12 C6.03 12 3.06 12 0 12 C0 8.04 0 4.08 0 0 Z " fill="#060606" transform="translate(161,243)"/>
<path d="M0 0 C0 0.99 0 1.98 0 3 C-1.98 3 -3.96 3 -6 3 C-6.33 4.65 -6.66 6.3 -7 8 C-4.23735711 8.59732819 -1.83967231 9 1 9 C1 9.66 1 10.32 1 11 C-1.79870027 12.39935013 -3.90498792 12.25265405 -7 12 C-8.875 10.9375 -8.875 10.9375 -10 9 C-10.4375 5.5 -10.4375 5.5 -10 2 C-6.98160349 -1.71494955 -4.37763951 -1.09440988 0 0 Z " fill="#171717" transform="translate(322,243)"/>
<path d="M0 0 C0 0.99 0 1.98 0 3 C-1.98 3 -3.96 3 -6 3 C-6.33 4.65 -6.66 6.3 -7 8 C-4.23735711 8.59732819 -1.83967231 9 1 9 C1 9.66 1 10.32 1 11 C-1.79870027 12.39935013 -3.90498792 12.25265405 -7 12 C-8.875 10.9375 -8.875 10.9375 -10 9 C-10.4375 5.5 -10.4375 5.5 -10 2 C-6.98160349 -1.71494955 -4.37763951 -1.09440988 0 0 Z " fill="#171717" transform="translate(223,243)"/>
<path d="M0 0 C3.125 0.375 3.125 0.375 6 1 C6.04254356 2.99954746 6.04080783 5.00041636 6 7 C5 8 5 8 1.9375 8.0625 C0.968125 8.041875 -0.00125 8.02125 -1 8 C-1.625 5.125 -1.625 5.125 -2 2 C-1.34 1.34 -0.68 0.68 0 0 Z " fill="#B0B0B0" transform="translate(207,345)"/>
<path d="M0 0 C3.3 0 6.6 0 10 0 C10 0.66 10 1.32 10 2 C9.01 2 8.02 2 7 2 C7 5.3 7 8.6 7 12 C6.01 12 5.02 12 4 12 C4 8.7 4 5.4 4 2 C2.68 2 1.36 2 0 2 C0 1.34 0 0.68 0 0 Z " fill="#141414" transform="translate(330,243)"/>
<path d="M0 0 C3.3 0 6.6 0 10 0 C10 0.66 10 1.32 10 2 C8.68 2 7.36 2 6 2 C6 5.3 6 8.6 6 12 C5.01 12 4.02 12 3 12 C3 8.7 3 5.4 3 2 C2.01 2 1.02 2 0 2 C0 1.34 0 0.68 0 0 Z " fill="#111111" transform="translate(178,243)"/>
<path d="M0 0 C2.5 0.125 2.5 0.125 3.5 1.125 C3.6875 3.5625 3.6875 3.5625 3.5 6.125 C2.84 6.785 2.18 7.445 1.5 8.125 C-2.03571429 7.58928571 -2.03571429 7.58928571 -3.5 6.125 C-3.625 3.625 -3.625 3.625 -3.5 1.125 C-2.5 0.125 -2.5 0.125 0 0 Z " fill="#ECECEC" transform="translate(238.5,244.875)"/>
<path d="M0 0 C0.99 0 1.98 0 3 0 C3 3.3 3 6.6 3 10 C4.98 10 6.96 10 9 10 C9 10.66 9 11.32 9 12 C6.03 12 3.06 12 0 12 C0 8.04 0 4.08 0 0 Z " fill="#090909" transform="translate(144,243)"/>
<path d="M0 0 C1.98 0 3.96 0 6 0 C6.625 1.875 6.625 1.875 7 4 C6.34 4.66 5.68 5.32 5 6 C4.01 6 3.02 6 2 6 C2 6.66 2 7.32 2 8 C1.34 8 0.68 8 0 8 C0 5.36 0 2.72 0 0 Z " fill="#9D9D9D" transform="translate(359,345)"/>
<path d="M0 0 C1.98 0 3.96 0 6 0 C6.625 1.875 6.625 1.875 7 4 C6.34 4.66 5.68 5.32 5 6 C4.01 6 3.02 6 2 6 C2 6.66 2 7.32 2 8 C1.34 8 0.68 8 0 8 C0 5.36 0 2.72 0 0 Z " fill="#9A9A9A" transform="translate(149,345)"/>
<path d="M0 0 C0.33 0.99 0.66 1.98 1 3 C-0.98 3 -2.96 3 -5 3 C-4.67 4.32 -4.34 5.64 -4 7 C-5.32 6.67 -6.64 6.34 -8 6 C-7.625 3.5625 -7.625 3.5625 -7 1 C-4.53721199 -0.231394 -2.7204945 -0.07159196 0 0 Z " fill="#262626" transform="translate(203,242)"/>
<path d="M0 0 C1.98 0 3.96 0 6 0 C4.68 0.33 3.36 0.66 2 1 C2 1.66 2 2.32 2 3 C2.99 3 3.98 3 5 3 C5 3.66 5 4.32 5 5 C4.01 5 3.02 5 2 5 C2 5.66 2 6.32 2 7 C3.32 7.33 4.64 7.66 6 8 C4.02 8 2.04 8 0 8 C0 5.36 0 2.72 0 0 Z " fill="#787878" transform="translate(241,345)"/>
<path d="M0 0 C6.40818182 -0.36272727 6.40818182 -0.36272727 8.9375 1.1875 C10.32851983 3.56041618 10.21917317 5.29686424 10 8 C8.29159719 6.36587557 7.06546953 5.13093906 6 3 C4.02 3 2.04 3 0 3 C0 2.01 0 1.02 0 0 Z " fill="#080808" transform="translate(235,243)"/>
<path d="M0 0 C3 3.75 3 3.75 3 6 C1.35 6 -0.3 6 -2 6 C-2 6.66 -2 7.32 -2 8 C-2.66 7.67 -3.32 7.34 -4 7 C-2.68 4.69 -1.36 2.38 0 0 Z " fill="#7B7B7B" transform="translate(136,345)"/>
<path d="M0 0 C0.66 0 1.32 0 2 0 C2 2.64 2 5.28 2 8 C0.68 7.34 -0.64 6.68 -2 6 C-1.34 4.02 -0.68 2.04 0 0 Z " fill="#848484" transform="translate(305,345)"/>
<path d="M0 0 C0.99 1.32 1.98 2.64 3 4 C1.625 5.5 1.625 5.5 0 7 C-0.66 7 -1.32 7 -2 7 C-1.42415568 4.61435923 -0.77772405 2.33317216 0 0 Z " fill="#242424" transform="translate(242,248)"/>
</svg>
